<?xml version="1.0" encoding="utf-8"?>
<!-- Generator: Adobe Illustrator 21.1.0, SVG Export Plug-In . SVG Version: 6.00 Build 0)  -->
<svg version="1.1" id="Layer_1" xmlns="http://www.w3.org/2000/svg" xmlns:xlink="http://www.w3.org/1999/xlink" x="0px" y="0px"
	 viewBox="0 0 200 200" style="enable-background:new 0 0 200 200;" xml:space="preserve">
<style type="text/css">
	.st0{fill:#FFFFFF;}
</style>
<path class="st0" d="M189.4,148.8h-25.6c-2.4,0-4.3,1.9-4.3,4.3c0,2.4,1.9,4.3,4.3,4.3h14.5c-20.6,18.3-46.6,28.7-74.2,29.7V83h35.6
	c2.4,0,4.3-1.9,4.3-4.3c0-2.4-1.9-4.3-4.3-4.3h-35.6V50.6c10.7-2,18.9-11.5,18.9-22.8C123,15,112.5,4.6,99.8,4.6
	C87,4.6,76.6,15,76.6,27.8c0,11.3,8.1,20.7,18.9,22.8v23.7H59.9c-2.4,0-4.3,1.9-4.3,4.3c0,2.4,1.9,4.3,4.3,4.3h35.6v104.3
	c-27.6-1-53.6-11.4-74.2-29.7h14.5c2.4,0,4.3-1.9,4.3-4.3c0-2.4-1.9-4.3-4.3-4.3H10.1c-2.4,0-4.3,1.9-4.3,4.3v25.6
	c0,2.4,1.9,4.3,4.3,4.3c2.4,0,4.3-1.9,4.3-4.3v-15.7C37.9,184.4,67.9,196,99.8,196c31.8,0,61.9-11.6,85.3-32.9v15.7
	c0,2.4,1.9,4.3,4.3,4.3c2.4,0,4.3-1.9,4.3-4.3v-25.6C193.8,150.8,191.8,148.8,189.4,148.8z M85.2,27.8c0-8,6.5-14.5,14.5-14.5
	c8,0,14.5,6.5,14.5,14.5c0,7.7-6,13.9-13.5,14.4c-0.3-0.1-0.6-0.1-1-0.1c-0.3,0-0.7,0-1,0.1C91.2,41.7,85.2,35.5,85.2,27.8z"/>
</svg>
