<?xml version="1.0" encoding="utf-8"?>
<!-- Generator: Adobe Illustrator 21.1.0, SVG Export Plug-In . SVG Version: 6.00 Build 0)  -->
<svg version="1.1" id="Layer_1" xmlns="http://www.w3.org/2000/svg" xmlns:xlink="http://www.w3.org/1999/xlink" x="0px" y="0px"
	 viewBox="0 0 200 200" style="enable-background:new 0 0 200 200;" xml:space="preserve">
<style type="text/css">
	.st0{fill:#FFFFFF;}
</style>
<path class="st0" d="M183.9,169.7c0-0.1,0-0.2,0-0.2L167.2,32c-0.3-2.1-2-3.7-4.2-3.7h-4.2V15.7c0-2.3-1.9-4.2-4.2-4.2h-25.8
	c-2.3,0-4.2,1.9-4.2,4.2v12.7h-6.3c-2.3,0-4.2,1.9-4.2,4.2v34.8H84.9V32.5c0-2.3-1.9-4.2-4.2-4.2h-6.3V15.7c0-2.3-1.9-4.2-4.2-4.2
	H44.4c-2.3,0-4.2,1.9-4.2,4.2v12.7H36c-2.1,0-3.9,1.6-4.2,3.7L15.1,169.5c0,0.1,0,0.2,0,0.2c0,0.1,0,0.2,0,0.3v13.8
	c0,2.3,1.9,4.2,4.2,4.2h61.4c2.3,0,4.2-1.9,4.2-4.2V170v-33.1h29.3V170v13.8c0,2.3,1.9,4.2,4.2,4.2h61.4c2.3,0,4.2-1.9,4.2-4.2V170
	C183.9,169.9,183.9,169.8,183.9,169.7z M133,19.9h17.4v8.5H133V19.9z M122.5,36.7h6.3h25.8h4.7L175,165.8h-52.5v-33.1V71.6V36.7z
	 M48.6,19.9H66v8.5H48.6V19.9z M39.7,36.7h4.7h25.8h6.3v34.8v61.1v33.1H24L39.7,36.7z M76.5,179.6h-53v-5.5h53V179.6z M84.9,128.5
	V75.7h29.3v52.7H84.9z M175.6,179.6h-53v-5.5h53V179.6z"/>
</svg>
