<?xml version="1.0" encoding="utf-8"?>
<!-- Generator: Adobe Illustrator 21.1.0, SVG Export Plug-In . SVG Version: 6.00 Build 0)  -->
<svg version="1.1" id="Layer_1" xmlns="http://www.w3.org/2000/svg" xmlns:xlink="http://www.w3.org/1999/xlink" x="0px" y="0px"
	 viewBox="0 0 200 200" style="enable-background:new 0 0 200 200;" xml:space="preserve">
<style type="text/css">
	.st0{fill:#FFFFFF;}
</style>
<path class="st0" d="M151.8,111.6c8.4-10.3,13.4-23.4,13.4-37.7c0-33-26.9-59.9-59.9-59.9c-10,0-19.4,2.5-27.7,6.8L68,6.2
	c-0.8-1.3-2.5-1.6-3.8-0.8c-1.3,0.8-1.6,2.5-0.8,3.8l3.6,5.4C47.1,27.6,34.8,50.1,34.8,73.9c0,38,30.2,69,67.8,70.5v46.3H80.2
	c-1.5,0-2.7,1.2-2.7,2.7s1.2,2.7,2.7,2.7h50.3c1.5,0,2.7-1.2,2.7-2.7s-1.2-2.7-2.7-2.7h-22.4v-46.3c17.3-0.7,33.4-7.5,45.9-19.4
	l3.1,4.7c0.5,0.8,1.4,1.2,2.3,1.2c0.5,0,1-0.1,1.5-0.5c1.3-0.8,1.6-2.5,0.8-3.8L151.8,111.6z M85.7,23.2
	c-4.8,4.9-8.8,11.5-11.8,19.2c-7.8,3-14.4,7-19.2,11.8C60.2,40,71.5,28.7,85.7,23.2z M113.9,126.2c2-4.3,3.6-10,4.8-16.3
	c4-0.6,7.8-1.4,11.4-2.4C126,116.5,120.4,123.1,113.9,126.2z M119.6,104.3c0.7-4.9,1.2-9.9,1.5-14.7c4.8-0.3,9.8-0.8,14.7-1.5
	c-0.7,4.6-1.8,9-3.2,13.1C128.6,102.5,124.2,103.6,119.6,104.3z M78.1,101.1c-1.4-4.1-2.4-8.4-3.2-13.1c4.9,0.7,9.9,1.2,14.7,1.5
	c0.3,4.8,0.8,9.8,1.5,14.7C86.5,103.6,82.2,102.5,78.1,101.1z M92.1,110c1.2,6.3,2.7,12,4.8,16.3c-6.5-3.1-12.1-9.8-16.2-18.7
	C84.3,108.6,88.1,109.4,92.1,110z M91.2,43.4c-0.7,4.9-1.2,9.9-1.5,14.7c-4.8,0.3-9.8,0.8-14.7,1.5c0.7-4.6,1.8-9,3.2-13.1
	C82.2,45.2,86.5,44.2,91.2,43.4z M80.7,40.2c4.1-8.9,9.7-15.5,16.2-18.7c-2,4.3-3.6,10-4.8,16.3C88.1,38.3,84.3,39.1,80.7,40.2z
	 M136.9,73.9c0,2.9-0.1,5.8-0.4,8.6c-4.4,0.7-9.5,1.3-15.1,1.7c0.2-3.7,0.2-7.2,0.2-10.3c0-3.1-0.1-6.6-0.2-10.3
	c5.6,0.4,10.7,1,15.1,1.7C136.8,68.1,136.9,70.9,136.9,73.9z M116.2,73.9c0,3.7-0.1,7.2-0.2,10.6c-3.4,0.1-6.9,0.2-10.6,0.2
	c-3.7,0-7.2-0.1-10.6-0.2c-0.1-3.4-0.2-6.9-0.2-10.6c0-3.7,0.1-7.2,0.2-10.6c3.4-0.1,6.9-0.2,10.6-0.2c3.7,0,7.2,0.1,10.6,0.2
	C116.1,66.6,116.2,70.2,116.2,73.9z M73.8,73.9c0-2.9,0.1-5.8,0.4-8.6c4.4-0.7,9.5-1.3,15.1-1.7c-0.2,3.7-0.2,7.2-0.2,10.3
	c0,3.1,0.1,6.6,0.2,10.3c-5.6-0.4-10.7-1-15.1-1.7C74,79.7,73.8,76.8,73.8,73.9z M105.4,57.6c-3.1,0-6.6,0.1-10.3,0.2
	c0.4-5.6,1-10.7,1.7-15.1c2.8-0.3,5.7-0.4,8.6-0.4c2.9,0,5.8,0.1,8.6,0.4c0.7,4.4,1.3,9.5,1.7,15.1C112,57.6,108.5,57.6,105.4,57.6z
	 M69.3,60.6c-6.3,1.2-12,2.7-16.3,4.8c3.1-6.5,9.8-12.1,18.7-16.2C70.7,52.8,69.8,56.6,69.3,60.6z M68.7,66.3
	c-0.2,2.5-0.3,5-0.3,7.6c0,2.6,0.1,5.1,0.3,7.6C57.1,79.1,51,75.9,51,73.9C51,71.8,57.1,68.6,68.7,66.3z M69.3,87.2
	c0.6,4,1.4,7.8,2.4,11.4c-8.9-4.1-15.5-9.7-18.7-16.2C57.3,84.4,63,86,69.3,87.2z M95.1,89.9c3.7,0.2,7.2,0.2,10.3,0.2
	c3.1,0,6.6-0.1,10.3-0.2c-0.4,5.6-1,10.7-1.7,15.1c-2.8,0.3-5.7,0.4-8.6,0.4c-2.9,0-5.8-0.1-8.6-0.4C96.1,100.6,95.5,95.5,95.1,89.9
	z M141.5,87.2c6.3-1.2,12-2.7,16.3-4.8c-3.1,6.5-9.8,12.1-18.7,16.2C140.1,95,140.9,91.1,141.5,87.2z M142.1,81.5
	c0.2-2.5,0.3-5,0.3-7.6c0-2.6-0.1-5.1-0.3-7.6c11.6,2.4,17.7,5.5,17.7,7.6C159.8,75.9,153.7,79.1,142.1,81.5z M141.5,60.6
	c-0.6-4-1.4-7.8-2.4-11.4c8.9,4.1,15.5,9.7,18.7,16.2C153.5,63.3,147.8,61.7,141.5,60.6z M135.8,59.7c-4.9-0.7-9.9-1.2-14.7-1.5
	c-0.3-4.8-0.8-9.8-1.5-14.7c4.6,0.7,9,1.8,13.1,3.2C134,50.7,135.1,55,135.8,59.7z M118.7,37.8c-1.2-6.3-2.7-12-4.8-16.3
	c6.5,3.1,12.1,9.8,16.2,18.7C126.5,39.1,122.6,38.3,118.7,37.8z M113,37.2c-2.5-0.2-5-0.3-7.6-0.3c-2.6,0-5.1,0.1-7.6,0.3
	c2.4-11.6,5.5-17.7,7.6-17.7S110.6,25.6,113,37.2z M73.9,105.3c3,7.8,7,14.4,11.8,19.2c-14.2-5.5-25.5-16.8-31-31
	C59.6,98.3,66.1,102.4,73.9,105.3z M97.8,110.6c2.5,0.2,5,0.3,7.6,0.3c2.6,0,5.1-0.1,7.6-0.3c-2.4,11.6-5.5,17.7-7.6,17.7
	S100.1,122.2,97.8,110.6z M136.9,105.3c7.8-3,14.4-7,19.2-11.8c-5.5,14.2-16.8,25.5-31,31C129.8,119.7,133.9,113.1,136.9,105.3z
	 M156.1,54.2c-4.9-4.8-11.5-8.8-19.2-11.8c-3-7.8-7-14.4-11.8-19.2C139.2,28.7,150.6,40,156.1,54.2z M105.4,138.9
	c-35.9,0-65.1-29.2-65.1-65.1c0-22,11.3-42.7,29.7-54.6l2.9,4.3C56.4,34.3,45.5,52.8,45.5,73.9c0,33,26.9,59.9,59.9,59.9
	c16.7,0,31.8-6.9,42.7-17.9l2.9,4.4C138.7,132.3,122.6,138.9,105.4,138.9z"/>
</svg>
