<?xml version="1.0" encoding="utf-8"?>
<!-- Generator: Adobe Illustrator 21.1.0, SVG Export Plug-In . SVG Version: 6.00 Build 0)  -->
<svg version="1.1" id="Layer_1" xmlns="http://www.w3.org/2000/svg" xmlns:xlink="http://www.w3.org/1999/xlink" x="0px" y="0px"
	 viewBox="0 0 200 200" style="enable-background:new 0 0 200 200;" xml:space="preserve">
<style type="text/css">
	.st0{fill:#FFFFFF;}
</style>
<path class="st0" d="M167.7,32.1c-37.6-37.6-98.8-37.6-136.4,0C13.1,50.3,3,74.5,3,100.3c0,25.8,10,50,28.3,68.2
	c18.8,18.8,43.5,28.2,68.2,28.2c24.7,0,49.4-9.4,68.2-28.2c18.2-18.2,28.3-42.4,28.3-68.2C196,74.5,186,50.3,167.7,32.1z
	 M182.5,134.5l-35.9-12c6.6-14,6.6-30.3,0-44.4l35.9-12c4.4,10.7,6.7,22.3,6.7,34.2C189.2,112.2,186.9,123.8,182.5,134.5z
	 M122.9,139.1c-0.1,0-0.2,0-0.4,0.1c-0.6,0.2-1.1,0.6-1.5,1c-13.4,7.2-29.7,7.2-43.1,0c-0.4-0.4-0.9-0.8-1.5-1
	c-0.1,0-0.2-0.1-0.4-0.1c-3.1-1.9-6-4.1-8.7-6.7c-2.7-2.7-4.9-5.6-6.7-8.7c0-0.1,0-0.2-0.1-0.4c-0.2-0.6-0.6-1.1-1-1.5
	c-7.2-13.4-7.2-29.7,0-43.1c0.4-0.4,0.8-0.8,1-1.4c0-0.1,0.1-0.2,0.1-0.4c1.9-3.1,4.1-6,6.7-8.7c2.7-2.7,5.6-4.9,8.7-6.8
	c0.1,0,0.2,0,0.3,0c0.6-0.2,1.1-0.6,1.5-1c6.7-3.6,14.1-5.4,21.5-5.4c7.4,0,14.8,1.8,21.5,5.4c0.4,0.4,0.9,0.8,1.5,1
	c0.1,0,0.2,0,0.3,0c3.1,1.9,6.1,4.1,8.7,6.8c2.7,2.7,4.9,5.6,6.7,8.7c0,0.1,0,0.2,0.1,0.4c0.2,0.6,0.5,1,1,1.4
	c7.3,13.4,7.3,29.7,0,43.1c-0.4,0.4-0.8,0.9-1,1.5c0,0.1-0.1,0.2-0.1,0.4c-1.9,3.1-4.1,6-6.7,8.7C128.9,135,126,137.2,122.9,139.1z
	 M179.6,59.9l-36.3,12.1c-2-3-4.3-5.9-6.9-8.6c-2.7-2.7-5.6-5-8.6-6.9l12.1-36.3c8.3,4.2,16.1,9.7,23.1,16.7
	C169.8,43.8,175.4,51.5,179.6,59.9z M133.7,17.4l-12,35.8c-14-6.6-30.3-6.6-44.4,0l-12-35.8c10.9-4.5,22.5-6.7,34.2-6.7
	C111.1,10.7,122.8,12.9,133.7,17.4z M36.1,36.9C43,30,50.8,24.4,59.2,20.2l12.1,36.3c-3,2-5.9,4.3-8.6,6.9c-2.7,2.7-5,5.6-6.9,8.6
	L19.4,59.9C23.7,51.5,29.2,43.8,36.1,36.9z M16.5,66.1l35.9,12c-6.6,14-6.6,30.3,0,44.4l-35.9,12c-4.4-10.7-6.7-22.3-6.7-34.2
	C9.8,88.4,12.1,76.8,16.5,66.1z M19.4,140.7l36.3-12.1c2,3,4.3,5.9,6.9,8.6c2.7,2.7,5.6,5,8.6,6.9l-12.1,36.3
	c-8.3-4.2-16.1-9.7-23.1-16.7C29.2,156.9,23.7,149.1,19.4,140.7z M65.4,183.2l12-35.8c7,3.3,14.6,5,22.2,5c7.6,0,15.2-1.7,22.2-5
	l12,35.8C111.9,192.2,87.2,192.2,65.4,183.2z M162.9,163.7c-6.9,6.9-14.7,12.5-23.1,16.7l-12.1-36.3c3-2,5.9-4.3,8.6-6.9
	c2.7-2.7,5-5.6,6.9-8.6l36.3,12.1C175.4,149.1,169.8,156.9,162.9,163.7z"/>
</svg>
