<?xml version="1.0" encoding="utf-8"?>
<!-- Generator: Adobe Illustrator 21.1.0, SVG Export Plug-In . SVG Version: 6.00 Build 0)  -->
<svg version="1.1" id="Layer_1" xmlns="http://www.w3.org/2000/svg" xmlns:xlink="http://www.w3.org/1999/xlink" x="0px" y="0px"
	 viewBox="0 0 200 200" style="enable-background:new 0 0 200 200;" xml:space="preserve">
<style type="text/css">
	.st0{fill:#FFFFFF;}
</style>
<path class="st0" d="M162.4,175.3c-16.6-31.5-18.1-74.4-18.2-76c0-20.2-13.6-37.3-32.2-42.6V45.4c6.4-4.1,10.7-11.3,10.7-19.4
	c0-12.7-10.3-23-23-23c-12.7,0-23,10.3-23,23c0,8.2,4.3,15.4,10.7,19.4v11.2C68.9,62,55.3,79.1,55.3,99.2c0,0.4-1.4,44.1-18.2,76
	c-0.6,1.2-0.6,2.5,0.1,3.6c0.7,1.1,1.9,1.8,3.2,1.8h34.8c4.4,9.5,13.9,15.8,24.6,15.8c10.6,0,20.2-6.2,24.6-15.8h34.8
	c1.3,0,2.5-0.7,3.2-1.8C163,177.8,163,176.4,162.4,175.3z M99.8,10.4c8.6,0,15.6,7,15.6,15.6c0,8.6-7,15.6-15.6,15.6
	c-8.6,0-15.6-7-15.6-15.6C84.2,17.4,91.2,10.4,99.8,10.4z M94.9,54.9v-6.4c1.6,0.3,3.2,0.5,4.9,0.5c1.7,0,3.3-0.2,4.9-0.5v6.4H94.9z
	 M99.8,189c-6.5,0-12.4-3.2-16.1-8.3h32.1C112.2,185.8,106.3,189,99.8,189z M121.8,173.3H77.7H46.4c15.1-32.6,16.3-72.1,16.3-74
	c0-20.4,16.6-37,37-37c20.4,0,37,16.6,37,37c0,0,0,0.1,0,0.1c0,1.8,1.3,41.3,16.3,73.9H121.8z"/>
</svg>
