<?xml version="1.0" encoding="utf-8"?>
<!-- Generator: Adobe Illustrator 21.1.0, SVG Export Plug-In . SVG Version: 6.00 Build 0)  -->
<svg version="1.1" id="Layer_1" xmlns="http://www.w3.org/2000/svg" xmlns:xlink="http://www.w3.org/1999/xlink" x="0px" y="0px"
	 viewBox="0 0 200 200" style="enable-background:new 0 0 200 200;" xml:space="preserve">
<style type="text/css">
	.st0{fill:#FFFFFF;}
</style>
<g>
	<path class="st0" d="M135.4,194.8L119.2,79.8h2c1.5,0,2.8-1.3,2.8-2.8V62.8c0-1.5-1.3-2.8-2.8-2.8h-4.2V39.4h5.5
		c1.2,0,2.3-0.8,2.6-1.9c0.4-1.1,0-2.4-0.9-3.1l-18-14.1V4.7c0-1.5-1.3-2.8-2.8-2.8h-8.1c-1.5,0-2.8,1.3-2.8,2.8v15.6l-18,14.1
		c-0.9,0.7-1.3,2-0.9,3.1c0.4,1.1,1.5,1.9,2.6,1.9h5.5V60h-4.2c-1.5,0-2.8,1.3-2.8,2.8V77c0,1.5,1.3,2.8,2.8,2.8h2L63.1,194.8
		c-0.1,0.8,0.1,1.6,0.7,2.2c0.5,0.6,1.3,1,2.1,1H93h11.5h28.2c0.8,0,1.6-0.4,2.1-1C135.3,196.4,135.6,195.6,135.4,194.8z
		 M75.4,147.9h18h11.5h18.3l2.5,17.8H72.9L75.4,147.9z M78.7,124.5h41.2l2.5,17.8h-14.7v-2.9c0-4.7-3.8-8.5-8.5-8.5
		s-8.5,3.8-8.5,8.5v2.9H76.2L78.7,124.5z M82,101.1h11h11.5h12l2.5,17.8H79.5L82,101.1z M101.7,95.5h-5.9v-2.9
		c0-1.6,1.3-2.9,2.9-2.9c1.6,0,2.9,1.3,2.9,2.9V95.5z M102.1,142.3h-5.9v-2.9c0-1.6,1.3-2.9,2.9-2.9c1.6,0,2.9,1.3,2.9,2.9V142.3z
		 M118.4,74.1H116h-4.6v-8.5h2.8h4.2V74.1z M93.4,74.1v-8.5h12.4v8.5H93.4z M100.5,7.5v8.6c-0.8-0.4-1.7-0.4-2.5,0V7.5H100.5z
		 M99.3,22.1l15,11.7h-0.2H84.4h-0.2L99.3,22.1z M87.2,39.4h24.1V60H87.2V39.4z M80.1,65.6h4.2h3.4v8.5h-5.2h-2.4V65.6z M113.5,79.8
		l2.2,15.7h-8.4v-2.9c0-4.7-3.8-8.5-8.5-8.5s-8.5,3.8-8.5,8.5v2.9h-7.4L85,79.8H113.5z M95.8,192.4v-2.9c0-1.6,1.3-2.9,2.9-2.9
		c1.6,0,2.9,1.3,2.9,2.9v2.9H95.8z M107.3,192.4v-2.9c0-4.7-3.8-8.5-8.5-8.5s-8.5,3.8-8.5,8.5v2.9H69.1l3-21.1h54.4l3,21.1H107.3z"
		/>
	<path class="st0" d="M99.3,59.6c5.5,0,9.9-4.5,9.9-9.9c0-5.5-4.5-9.9-9.9-9.9c-5.5,0-9.9,4.5-9.9,9.9
		C89.3,55.2,93.8,59.6,99.3,59.6z M99.3,45.4c2.4,0,4.3,1.9,4.3,4.3c0,2.4-1.9,4.3-4.3,4.3c-2.4,0-4.3-1.9-4.3-4.3
		C94.9,47.3,96.9,45.4,99.3,45.4z"/>
</g>
</svg>
