<?xml version="1.0" encoding="utf-8"?>
<!-- Generator: Adobe Illustrator 21.1.0, SVG Export Plug-In . SVG Version: 6.00 Build 0)  -->
<svg version="1.1" id="Layer_1" xmlns="http://www.w3.org/2000/svg" xmlns:xlink="http://www.w3.org/1999/xlink" x="0px" y="0px"
	 viewBox="0 0 200 200" style="enable-background:new 0 0 200 200;" xml:space="preserve">
<style type="text/css">
	.st0{fill:#FFFFFF;}
</style>
<g>
	<path class="st0" d="M66.6,48.6c0-6.7-5.5-12.2-12.2-12.2s-12.2,5.5-12.2,12.2c0,6.7,5.5,12.2,12.2,12.2S66.6,55.4,66.6,48.6z
		 M48,48.6c0-3.5,2.8-6.3,6.3-6.3c3.5,0,6.3,2.8,6.3,6.3c0,3.5-2.8,6.3-6.3,6.3C50.9,54.9,48,52.1,48,48.6z"/>
	<path class="st0" d="M191.6,72.8l-45.4-16.1c-0.1,0-0.2,0-0.3-0.1c-0.1,0-0.2-0.1-0.4-0.1c-0.1,0-0.2,0-0.3,0c-0.1,0-0.2,0-0.4,0
		c-0.1,0-0.2,0-0.3,0.1c-0.1,0-0.2,0-0.3,0.1L99.8,72.4L78.9,65c1.7-5.7,2.5-11.6,1.7-17.5C77.9,25,64.3,22.4,54.4,22.4
		S30.8,25,28.1,47.5c-0.7,5.9,0.1,11.8,1.7,17.5L8,72.8c-1.2,0.4-2,1.5-2,2.8V175c0,1,0.5,1.9,1.2,2.4c0.5,0.4,1.1,0.5,1.7,0.5
		c0.3,0,0.7-0.1,1-0.2L54.4,162l44.4,15.7c0,0,0,0,0.1,0c0.3,0.1,0.6,0.2,0.9,0.2c0.3,0,0.6-0.1,0.9-0.2c0,0,0,0,0.1,0l44.4-15.7
		l44.4,15.7c0.3,0.1,0.7,0.2,1,0.2c0.6,0,1.2-0.2,1.7-0.5c0.8-0.6,1.2-1.5,1.2-2.4V75.6C193.5,74.3,192.7,73.2,191.6,72.8z
		 M33.9,48.2c2.1-17.6,11.1-20,20.4-20c9.4,0,18.3,2.4,20.4,20C76.8,65,64.3,84,54.4,94C44.4,84,31.9,65,33.9,48.2z M11.9,77.7
		l19.9-7c5,12.3,13.6,22.9,19.6,28.7v57.5l-39.5,14V77.7z M57.3,99.4c6.1-5.8,14.7-16.5,19.6-28.7l19.9,7v93.2l-39.5-14V99.4z
		 M102.7,77.7l39.5-14v93.2l-39.5,14V77.7z M187.6,170.8l-39.5-14V63.7l39.5,14V170.8z"/>
</g>
</svg>
