<?xml version="1.0" encoding="utf-8"?>
<!-- Generator: Adobe Illustrator 21.1.0, SVG Export Plug-In . SVG Version: 6.00 Build 0)  -->
<svg version="1.1" id="Layer_1" xmlns="http://www.w3.org/2000/svg" xmlns:xlink="http://www.w3.org/1999/xlink" x="0px" y="0px"
	 viewBox="0 0 200 200" style="enable-background:new 0 0 200 200;" xml:space="preserve">
<style type="text/css">
	.st0{fill:#FFFFFF;}
</style>
<g>
	<path class="st0" d="M189.5,94.2l-30-4C154.2,61.9,129,40.9,100,40.9c-29,0-54.2,21.1-59.5,49.3l-30,4c-1.6,0.2-2.7,1.7-2.5,3.2
		l7.7,59.4c0.2,1.4,1.4,2.5,2.9,2.5h162.7c1.5,0,2.7-1.1,2.9-2.5l7.7-59.4C192.2,95.9,191.1,94.5,189.5,94.2z M100,46.7
		c25.6,0,47.9,18.1,53.4,42.7L136,87c-23.9-3.2-48.1-3.2-72,0l-17.4,2.3C52.2,64.8,74.5,46.7,100,46.7z M178.9,153.6H21.2l-7-54
		l50.6-6.8c23.4-3.1,47.1-3.2,70.5,0l50.6,6.8L178.9,153.6z"/>
	<path class="st0" d="M119.4,132.7h-5.5c-1.6,0-2.9,1.3-2.9,2.9c0,0.9,0.4,1.6,1,2.2c-2.8,1.6-5.8,2.7-9,3v-13.7h5.7
		c1.6,0,2.9-1.3,2.9-2.9c0-1.6-1.3-2.9-2.9-2.9h-5.7V115c3.6-1.2,6.3-4.6,6.3-8.6c0-5-4.1-9.1-9.1-9.1s-9.1,4.1-9.1,9.1
		c0,4,2.6,7.4,6.3,8.6v6.3h-5.7c-1.6,0-2.9,1.3-2.9,2.9c0,1.6,1.3,2.9,2.9,2.9h5.7v13.7c-3.2-0.4-6.3-1.4-9-3c0.6-0.5,1-1.3,1-2.2
		c0-1.6-1.3-2.9-2.9-2.9h-5.5c-1.6,0-2.9,1.3-2.9,2.9v5.5c0,1.6,1.3,2.9,2.9,2.9c1.4,0,2.6-1,2.8-2.3c4.8,3.3,10.5,5.1,16.5,5.1
		c6,0,11.7-1.8,16.5-5.1c0.3,1.3,1.4,2.3,2.8,2.3c1.6,0,2.9-1.3,2.9-2.9v-5.5C122.3,134,121,132.7,119.4,132.7z M100,103
		c1.9,0,3.4,1.5,3.4,3.4c0,1.9-1.5,3.4-3.4,3.4c-1.9,0-3.4-1.5-3.4-3.4C96.7,104.5,98.2,103,100,103z"/>
</g>
</svg>
